<?xml version="1.0" encoding="UTF-8"?>
<svg id="tech_last_line" xmlns="http://www.w3.org/2000/svg" viewBox="0 0 2677.96 3473.07">
  <defs>
    <style>
      .cls-1 {
        stroke: #00fde1;
        stroke-linecap: round;
        stroke-linejoin: round;
        stroke-width: .75px;
      }

      .cls-1, .cls-2 {
        fill: none;
      }
    </style>
  </defs>
  <path class="cls-1" d="m1940.4,672.32c-2.54,27.36-19.72,265.51,130.99,438.45,160.11,183.73,270.81,355.69,20.46,806.71s-49.57,540.32-20.46,531.67,44.11-16.36,45.61-86.5c0,0-2.47-6.63-5.99-.39s2.49,35.24,4.49,38.24,20.9,13.54,25.95,9.77-25.92-13.25-30.44-12.01-22.62,7.14-21.57,15.19,27.05-16.95,27.05-16.95c0,0,24-20,22-29s-25,27-24,37,5,28,11,22-16.13-44.35-36.57-48.18,16.2,20.31,33.39,19.74,28.54-11.72,24.36-14.14-53.18,21.58-48.18,37.58,39-56,27-52-18,55,32,25c0,0,15-11,7-23s-3,20,11,21-15.15-16.44-19.57-10.72,27.67,2.79,26.62-6.75-25.05,10.47-23.05,22.47,4.33-23.97,9.67-22.98,46.33-17.02,28.33,50.98,9.68,13.47.34-11.77-14.34-3.23,5.66,20.77,35.42,8.39-14.79-14.31c0,0-11.13-5.18-9.67,2.06s38.46,3.24,39.46-2.76-11-2-18,4-17.71,8.45-19.35,20.73,22.35-23.73,23.35-29.73,1-8-1-8-10,22-2,37,31,14,39,8,9-21.1,0-5.05,7.76,23.39,6.38,17.72-3.38-8.67-15.38-16.67-10.08,5.87,15.46,8.44c0,0,3.54.56,4.54-.44s-.36-4.61-9.18-3.31-13.82,4.31-12.82,7.31,13-12,17-12,41-2,24,36,14,31,14,31c0,0,5-42,15-32s-16.55,15.26-9.77,21.63,30.77-9.63,15.77-1.63-32.93,18.06-23.97,16.53,31.66-12.6,28.81-34.06-12.84,34.53-19.84,35.53-60.67,12-81.33-18.5-44.67,28.5-54.67,19.5-9.76-32.34-9.76-32.34c0,0-.24-17.66,4.76-14.66s1.9,12.33,3.95,14.66,11.05-17.66,11.05-1.66c0,0-1,11-3,12s2,4,6-1,7,1,4,10,11-3,12,2-5.15,10.97-7.57,10.98-44.43-1.98-46.43-21.98,23,4,22,8-1.15,22.68-33.57,13.34c0,0-39.43-22.34-22.43-25.34s16,33,26,32,34-32,17-26-8,31-22,28-43.07-25.61-25.04-21.31,30.04,18.31,22.04,22.31.64-43.14,8.82-38.57-5.82,43.57-17.82,40.57-18.12-6.69-44-28c-34-28-63,19-63,19"/>
  <rect class="cls-2" x="1731.5" y="605" width="619" height="1955"/>
</svg>