<?xml version="1.0" encoding="UTF-8"?>
<svg id="_레이어_2" data-name="레이어 2" xmlns="http://www.w3.org/2000/svg" xmlns:xlink="http://www.w3.org/1999/xlink" viewBox="0 0 373.5 373.5">
  <defs>
    <style>
      .cls-1 {
        font-family: YDIYGO320, YDIYGO320;
        font-size: 8px;
      }

      .cls-1, .cls-2 {
        fill: #1a1c27;
      }

      .cls-3 {
        fill: #fff;
      }

      .cls-4 {
        stroke-width: .5px;
      }

      .cls-4, .cls-5, .cls-6 {
        fill: none;
      }

      .cls-4, .cls-6 {
        stroke: #1a1c27;
        stroke-linecap: round;
        stroke-linejoin: round;
      }

      .cls-7 {
        fill: #ffc649;
      }

      .cls-8 {
        clip-path: url(#clippath);
      }

      .cls-5 {
        stroke: #ffc649;
        stroke-miterlimit: 10;
      }

      .cls-5, .cls-6 {
        stroke-width: .75px;
      }

      .cls-9 {
        fill: #f7f7f7;
      }
    </style>
    <clipPath id="clippath">
      <rect class="cls-9" width="373.5" height="373.5"/>
    </clipPath>
  </defs>
  <g id="_레이어_12" data-name="레이어 12">
    <g>
      <g>
        <rect class="cls-9" width="373.5" height="373.5"/>
        <g class="cls-8">
          <g>
            <g>
              <g>
                <path class="cls-3" d="m277.95,172.27c1.06.62,2.45,1.8,2.23,3.67-.19,1.62-1.61,2.84-3.23,3.01l-9.05.95-4.57.48-1.66.18c2.41-.52,4.16-2.03,4.16-3.81,0-2.21-2.69-4-6-4-.21,0-.41.01-.61.02v-.03l16.7-.94c.71-.04,1.41.12,2.03.47Z"/>
                <polygon class="cls-3" points="267.9 288.93 271.83 293.75 256.83 293.75 260.94 288.93 267.9 288.93"/>
                <polygon class="cls-3" points="267.9 179.9 267.9 288.93 260.94 288.93 263.33 180.38 267.9 179.9"/>
                <path class="cls-3" d="m259.83,172.75c3.31,0,6,1.79,6,4,0,1.78-1.75,3.29-4.16,3.81l-1.84.19c-3.31,0-6-1.79-6-4,0-2.07,2.36-3.77,5.39-3.98.2-.01.4-.02.61-.02Z"/>
              </g>
              <g>
                <path class="cls-6" d="m259.22,172.77c.2-.01.4-.02.61-.02,3.31,0,6,1.79,6,4,0,1.78-1.75,3.29-4.16,3.81-.58.12-1.2.19-1.84.19-3.31,0-6-1.79-6-4,0-2.07,2.36-3.77,5.39-3.98Z"/>
                <path class="cls-6" d="m259.01,172.75h.21s16.7-.95,16.7-.95c.71-.04,1.41.12,2.03.47,1.06.62,2.45,1.8,2.23,3.67-.19,1.62-1.61,2.84-3.23,3.01l-9.05.95-4.57.48-1.66.18-1.84.19"/>
                <polyline class="cls-6" points="267.9 179.9 267.9 288.93 260.94 288.93 263.33 180.38"/>
                <polyline class="cls-6" points="260.94 288.93 256.83 293.75 271.83 293.75 267.9 288.93"/>
              </g>
            </g>
            <g>
              <g>
                <polygon class="cls-2" points="320.83 183.75 305.4 184.8 305.4 182.67 305.4 181.75 320.83 183.75"/>
                <polygon class="cls-7" points="305.4 182.67 305.4 184.8 276.83 186.75 270.22 180.14 305.4 182.67"/>
                <polygon class="cls-7" points="305.4 181.75 305.4 182.67 270.22 180.14 266.83 176.75 305.4 181.75"/>
                <polygon class="cls-7" points="246.1 134.06 263.33 160.25 260.6 169.12 244.53 135.34 246.1 134.06"/>
                <polygon class="cls-7" points="244.53 135.34 260.6 169.12 259.33 173.25 243.92 135.83 244.53 135.34"/>
                <polygon class="cls-7" points="259.33 181.25 235.51 212.18 234.82 211.74 235.01 211.44 255.2 182.41 259.33 181.25"/>
                <polygon class="cls-7" points="255.2 182.41 235.01 211.44 234.82 211.74 233.21 210.7 246.83 184.75 255.2 182.41"/>
                <polygon class="cls-2" points="238.33 122.25 246.1 134.06 244.53 135.34 243.92 135.83 238.33 122.25"/>
                <polygon class="cls-2" points="235.51 212.18 225.83 224.75 233.21 210.7 234.82 211.74 235.51 212.18"/>
              </g>
              <g>
                <polygon class="cls-6" points="246.1 134.06 238.33 122.25 243.92 135.83 259.33 173.25 260.6 169.12 263.33 160.25 246.1 134.06"/>
                <polygon class="cls-6" points="255.2 182.41 259.33 181.25 235.51 212.18 225.83 224.75 233.21 210.7 246.83 184.75 255.2 182.41"/>
                <polygon class="cls-6" points="305.4 181.75 266.83 176.75 270.22 180.14 276.83 186.75 305.4 184.8 320.83 183.75 305.4 181.75"/>
                <polyline class="cls-6" points="305.4 181.75 305.4 182.67 305.4 184.8"/>
                <polyline class="cls-6" points="233.21 210.7 234.82 211.74 235.51 212.18"/>
                <polyline class="cls-6" points="243.92 135.83 244.53 135.34 246.1 134.06"/>
                <line class="cls-4" x1="260.6" y1="169.12" x2="244.53" y2="135.34"/>
                <line class="cls-4" x1="255.2" y1="182.41" x2="235.01" y2="211.44"/>
                <line class="cls-4" x1="270.22" y1="180.14" x2="305.4" y2="182.67"/>
              </g>
            </g>
            <g>
              <g>
                <path class="cls-3" d="m139.62,212.94c.64.37,1.48,1.08,1.35,2.21-.11.98-.97,1.71-1.95,1.82l-5.46.57-2.76.29-1,.11c1.45-.31,2.51-1.23,2.51-2.3,0-1.33-1.62-2.41-3.62-2.41-.13,0-.25,0-.37.01v-.02l10.08-.57c.43-.02.85.07,1.23.29Z"/>
                <polygon class="cls-3" points="133.55 290.34 135.93 293.25 126.87 293.25 129.35 290.34 133.55 290.34"/>
                <polygon class="cls-3" points="133.55 217.54 133.55 290.34 129.35 290.34 130.8 217.83 133.55 217.54"/>
                <path class="cls-3" d="m128.68,213.23c2,0,3.62,1.08,3.62,2.41,0,1.07-1.06,1.99-2.51,2.3l-1.11.11c-2,0-3.62-1.08-3.62-2.41,0-1.25,1.42-2.28,3.25-2.4.12,0,.24-.01.37-.01Z"/>
              </g>
              <g>
                <path class="cls-6" d="m128.32,213.24c.12,0,.24-.01.37-.01,2,0,3.62,1.08,3.62,2.41,0,1.07-1.06,1.99-2.51,2.3-.35.07-.72.11-1.11.11-2,0-3.62-1.08-3.62-2.41,0-1.25,1.42-2.28,3.25-2.4Z"/>
                <path class="cls-6" d="m128.19,213.23h.13s10.08-.57,10.08-.57c.43-.02.85.07,1.23.29.64.37,1.48,1.08,1.35,2.21-.11.98-.97,1.71-1.95,1.82l-5.46.57-2.76.29-1,.11-1.11.11"/>
                <polyline class="cls-6" points="133.55 217.54 133.55 290.34 129.35 290.34 130.8 217.83"/>
                <polyline class="cls-6" points="129.35 290.34 126.87 293.25 135.93 293.25 133.55 290.34"/>
              </g>
            </g>
            <g>
              <g>
                <polygon class="cls-2" points="152.24 242.28 144.83 236.6 145.68 235.63 146.05 235.22 152.24 242.28"/>
                <polygon class="cls-7" points="145.68 235.63 144.83 236.6 131.13 226.07 130.77 220.44 145.68 235.63"/>
                <polygon class="cls-7" points="146.05 235.22 145.68 235.63 130.77 220.44 130.59 217.56 146.05 235.22"/>
                <polygon class="cls-7" points="138.25 189.96 135.59 208.69 130.82 211.61 137.03 189.91 138.25 189.96"/>
                <polygon class="cls-7" points="137.03 189.91 130.82 211.61 128.59 212.98 136.56 189.89 137.03 189.91"/>
                <polygon class="cls-7" points="125.4 216.6 102.27 221.09 102.14 220.61 102.34 220.55 123.07 215.47 125.4 216.6"/>
                <polygon class="cls-7" points="123.07 215.47 102.34 220.55 102.14 220.61 101.82 219.5 118.35 213.19 123.07 215.47"/>
                <polygon class="cls-2" points="139.45 181.51 138.25 189.96 137.03 189.91 136.56 189.89 139.45 181.51"/>
                <polygon class="cls-2" points="102.27 221.09 92.87 222.91 101.82 219.5 102.14 220.61 102.27 221.09"/>
              </g>
              <g>
                <polygon class="cls-6" points="138.25 189.96 139.45 181.51 136.56 189.89 128.59 212.98 130.82 211.61 135.59 208.69 138.25 189.96"/>
                <polygon class="cls-6" points="123.07 215.47 125.4 216.6 102.27 221.09 92.87 222.91 101.82 219.5 118.35 213.19 123.07 215.47"/>
                <polygon class="cls-6" points="146.05 235.22 130.59 217.56 130.77 220.44 131.13 226.07 144.83 236.6 152.24 242.28 146.05 235.22"/>
                <polyline class="cls-6" points="146.05 235.22 145.68 235.63 144.83 236.6"/>
                <polyline class="cls-6" points="101.82 219.5 102.14 220.61 102.27 221.09"/>
                <polyline class="cls-6" points="136.56 189.89 137.03 189.91 138.25 189.96"/>
                <line class="cls-4" x1="130.82" y1="211.61" x2="137.03" y2="189.91"/>
                <line class="cls-4" x1="123.07" y1="215.47" x2="102.34" y2="220.55"/>
                <line class="cls-4" x1="130.77" y1="220.44" x2="145.68" y2="235.63"/>
              </g>
            </g>
            <g>
              <g>
                <path class="cls-3" d="m192.4,145.68c1.24.72,2.86,2.1,2.6,4.28-.22,1.89-1.88,3.31-3.77,3.51l-10.56,1.11-5.33.56-1.94.21c2.81-.61,4.85-2.37,4.85-4.45,0-2.58-3.14-4.67-7-4.67-.25,0-.48.01-.71.02v-.04l19.48-1.1c.83-.05,1.65.14,2.37.55Z"/>
                <polygon class="cls-3" points="180.68 288.12 185.26 293.75 167.76 293.75 172.56 288.12 180.68 288.12"/>
                <polygon class="cls-3" points="180.68 154.58 180.68 288.12 172.56 288.12 175.35 155.14 180.68 154.58"/>
                <path class="cls-3" d="m171.26,146.24c3.86,0,7,2.09,7,4.67,0,2.08-2.04,3.84-4.85,4.45l-2.15.22c-3.86,0-7-2.09-7-4.67,0-2.42,2.75-4.4,6.29-4.64.23-.01.47-.02.71-.02Z"/>
              </g>
              <g>
                <path class="cls-6" d="m170.55,146.26c.23-.01.47-.02.71-.02,3.86,0,7,2.09,7,4.67,0,2.08-2.04,3.84-4.85,4.45-.68.14-1.4.22-2.15.22-3.86,0-7-2.09-7-4.67,0-2.42,2.75-4.4,6.29-4.64Z"/>
                <path class="cls-6" d="m170.31,146.24h.25s19.48-1.11,19.48-1.11c.83-.05,1.65.14,2.37.55,1.24.72,2.86,2.1,2.6,4.28-.22,1.89-1.88,3.31-3.77,3.51l-10.56,1.11-5.33.56-1.94.21-2.15.22"/>
                <polyline class="cls-6" points="180.68 154.58 180.68 288.12 172.56 288.12 175.35 155.14"/>
                <polyline class="cls-6" points="172.56 288.12 167.76 293.75 185.26 293.75 180.68 288.12"/>
              </g>
            </g>
            <g>
              <g>
                <polygon class="cls-2" points="228.45 190.15 211.89 182.98 213.03 180.78 213.52 179.82 228.45 190.15"/>
                <polygon class="cls-7" points="213.03 180.78 211.89 182.98 181.22 169.72 177.9 159.33 213.03 180.78"/>
                <polygon class="cls-7" points="213.52 179.82 213.03 180.78 177.9 159.33 176.2 154 213.52 179.82"/>
                <polygon class="cls-7" points="177.55 98.65 181.4 135.02 173.83 142.76 175.24 99.14 177.55 98.65"/>
                <polygon class="cls-7" points="175.24 99.14 173.83 142.76 170.3 146.36 174.34 99.32 175.24 99.14"/>
                <polygon class="cls-7" points="166.02 154.66 124.78 173.98 124.3 173.16 124.65 172.95 161.12 153.65 166.02 154.66"/>
                <polygon class="cls-7" points="161.12 153.65 124.65 172.95 124.3 173.16 123.18 171.22 151.19 151.6 161.12 153.65"/>
                <polygon class="cls-2" points="175.81 82.25 177.55 98.65 175.24 99.14 174.34 99.32 175.81 82.25"/>
                <polygon class="cls-2" points="124.78 173.98 108.01 181.84 123.18 171.22 124.3 173.16 124.78 173.98"/>
              </g>
              <g>
                <polygon class="cls-6" points="177.55 98.65 175.81 82.25 174.34 99.32 170.3 146.36 173.83 142.76 181.4 135.02 177.55 98.65"/>
                <polygon class="cls-6" points="161.12 153.65 166.02 154.66 124.78 173.98 108.01 181.84 123.18 171.22 151.19 151.6 161.12 153.65"/>
                <polygon class="cls-6" points="213.52 179.82 176.2 154 177.9 159.33 181.22 169.72 211.89 182.98 228.45 190.15 213.52 179.82"/>
                <polyline class="cls-6" points="213.52 179.82 213.03 180.78 211.89 182.98"/>
                <polyline class="cls-6" points="123.18 171.22 124.3 173.16 124.78 173.98"/>
                <polyline class="cls-6" points="174.34 99.32 175.24 99.14 177.55 98.65"/>
                <line class="cls-4" x1="173.83" y1="142.76" x2="175.24" y2="99.14"/>
                <line class="cls-4" x1="161.12" y1="153.65" x2="124.65" y2="172.95"/>
                <line class="cls-4" x1="177.9" y1="159.33" x2="213.03" y2="180.78"/>
              </g>
            </g>
            <path class="cls-2" d="m74.62,294.25h143.21s3.11-28.17-23.86-20.57c-.85.24-1.77-.13-2.2-.91-2.12-3.77-9.53-13.67-26.81-7.91-.68.23-1.42.09-1.95-.39-3.91-3.52-21.15-16.83-39.34,3.81-.5.57-1.28.82-2,.61-4.92-1.42-23.84-5.77-26.65,10.07-.17.96-1.01,1.66-1.98,1.63-4.48-.13-16.16.78-18.4,13.66Z"/>
            <path class="cls-2" d="m287.81,294.25h37.84s1.68-14-7.32-15-9,3-9,3c0,0-2.87-13.72-18-7-9,4-3.52,19-3.52,19Z"/>
            <line class="cls-6" x1="339.59" y1="294.25" x2="47.91" y2="294.25"/>
            <circle class="cls-2" cx="97.54" cy="107" r="15"/>
            <path class="cls-5" d="m56.42,153.06c8.46,4.72,22.07,8.31,34.46-6.06,19.82-23,37.66,0,37.66,0"/>
            <path class="cls-5" d="m48.12,169s22.94,23,42.76,0c5.87-6.81,11.56-9.59,16.67-10.12"/>
            <path class="cls-5" d="m199.54,160.7c4.24,2.36,11.05,4.16,17.25-3.04,9.92-11.51,18.85,0,18.85,0"/>
            <path class="cls-5" d="m171.54,208.19c3.53,1.97,9.21,3.47,14.38-2.53,8.27-9.6,15.72,0,15.72,0"/>
          </g>
        </g>
      </g>
      <text class="cls-1" transform="translate(82.91 320.35)"><tspan x="0" y="0">패널을 이용해 태양, 바람 및 바다로부터 에너지를 생산합니다.</tspan><tspan x="4.7" y="9.6">에너지의 효율성은 도시를 더욱 살기 좋은 곳으로 만듭니다.</tspan></text>
    </g>
  </g>
</svg>