<?xml version="1.0" encoding="UTF-8"?>
<svg id="_레이어_2" data-name="레이어 2" xmlns="http://www.w3.org/2000/svg" xmlns:xlink="http://www.w3.org/1999/xlink" viewBox="0 0 373.5 373.5">
  <defs>
    <style>
      .cls-1 {
        font-family: YDIYGO320, YDIYGO320;
        font-size: 8px;
      }

      .cls-1, .cls-2 {
        fill: #1a1c27;
      }

      .cls-3 {
        stroke: #ffc649;
      }

      .cls-3, .cls-4, .cls-5 {
        stroke-linecap: round;
        stroke-linejoin: round;
      }

      .cls-3, .cls-5 {
        fill: none;
      }

      .cls-4 {
        fill: #ffc649;
      }

      .cls-4, .cls-5 {
        stroke: #1a1c27;
        stroke-width: .75px;
      }

      .cls-6 {
        clip-path: url(#clippath);
      }

      .cls-7 {
        fill: #f7f7f7;
      }
    </style>
    <clipPath id="clippath">
      <rect class="cls-7" width="373.5" height="373.5"/>
    </clipPath>
  </defs>
  <g id="_레이어_12" data-name="레이어 12">
    <g>
      <g>
        <rect class="cls-7" width="373.5" height="373.5"/>
        <g class="cls-6">
          <g>
            <g>
              <line class="cls-5" x1="145.59" y1="138.62" x2="192.3" y2="108.5"/>
              <polyline class="cls-5" points="303.83 294 80.77 294 80.77 184.42 74.57 184.42 135.56 145.09"/>
              <polyline class="cls-5" points="192.3 108.5 310.03 184.42 303.83 184.42 303.83 257.76"/>
            </g>
            <g>
              <path class="cls-3" d="m249.99,234.31c.7-.06,1.41-.09,2.14-.09.91,0,1.81.04,2.7.12,15.25,1.36,27.19,14.17,27.19,29.77,0,9.96-4.87,18.78-12.36,24.19"/>
              <path class="cls-3" d="m229.07,283.13c-4.27-5.15-6.84-11.78-6.84-19.01,0-15.41,11.65-28.08,26.62-29.72.36-.04.74-.07,1.11-.09"/>
              <path class="cls-3" d="m269.59,288.37c-1.62,1.17-3.36,2.19-5.21,3.01-3.74,1.69-7.89,2.62-12.25,2.62s-8.51-.94-12.25-2.62c-4.2-1.89-7.9-4.72-10.8-8.24"/>
              <path class="cls-3" d="m248.86,234.4s-15.3-5.16-21.63,1.17-3.62,12.68-3.62,12.68c0,0-9.06,3.62-9.06,14.5s4.5,21.04,25.34,28.64"/>
              <path class="cls-3" d="m254.84,234.22s9.07-5.44,17.22-.91c8.15,4.54,7.25,13.6,7.25,13.6,0,0,8.15,4.52,9.06,13.58.9,9.06-2.7,28.28-23.99,30.9"/>
              <path class="cls-3" d="m249.92,234.3s.01,0,.05.01h.02c.8.19,7.17,2,8.02,13.05.62,8.05,6.74,9.75,11.41,14.07,2.17,1.99,4.04,4.55,4.9,8.57,2.51,11.67-3.67,17.47-4.66,18.31-.04.02-.06.05-.07.06-.04.04-.06.05-.06.05"/>
              <path class="cls-3" d="m229.09,283.15s0-.01-.01-.02c-.14-.77-2.82-16.46,12.18-22.63,14.87-6.12,27.32.47,28.17.94.04.01.05.02.05.02"/>
              <path class="cls-3" d="m229.94,259.13s1.81-17.21,16.31-18.12"/>
            </g>
            <g>
              <path class="cls-3" d="m316.33,264.98h.01c4.9,5.51,6.29,13.31,2.91,19.82-4.45,8.57-15.55,11.64-24.77,6.84-9.21-4.8-13.08-15.64-8.62-24.21,3.11-5.97,9.42-9.27,16.07-9.11"/>
              <path class="cls-3" d="m290.76,279.61c-.96-3.33-.73-6.92.94-10.13,1.12-2.15,2.75-3.88,4.69-5.13"/>
              <path class="cls-3" d="m315.94,272.21s-.03-.04-.04-.06c-.41-.68-4.34-7.48.45-7.16.36.03.78.09,1.26.2,0,0-1.9-2.08-5.13-4.08"/>
              <path class="cls-3" d="m304.62,269.29h.01c.38-.33,5.73-4.69,11.26,2.86"/>
              <path class="cls-3" d="m309.06,259.32h-.01c-2.37-1.03-5.11-1.79-8.15-1.85,0,0,.54.32,1.03.84,1.05,1.03,1.98,2.86-2.28,4.17,0,0,8.56,1.76,4.98,6.79"/>
              <path class="cls-3" d="m309.05,259.32c-.89,1.26-1.57,2.57-1.57,2.57,0,0,.35,3.14,3.88,2.02,0,0,.68-1.31,1.12-2.8.42-1.41.62-2.98-.16-3.78-.87-.9-2.22.51-3.27,1.99Z"/>
            </g>
            <g>
              <path class="cls-3" d="m113.39,259.23h.02c7.18,1.62,12.86,7.15,13.89,14.41,1.38,9.56-5.86,18.52-16.16,19.99-10.28,1.47-19.74-5.1-21.1-14.67-.95-6.67,2.26-13.02,7.76-16.76"/>
              <path class="cls-3" d="m101.12,286.02c-2.72-2.15-4.62-5.2-5.13-8.78-.34-2.4-.03-4.75.83-6.9"/>
              <path class="cls-3" d="m117.28,265.34s-.05-.02-.07-.02c-.73-.32-7.89-3.55-3.8-6.09.31-.19.69-.39,1.15-.57,0,0-2.76-.58-6.55-.33"/>
              <path class="cls-3" d="m106.38,269.56v-.02c.12-.48,1.93-7.14,10.83-4.22"/>
              <path class="cls-3" d="m104.19,258.87h-.01c-2.53.55-5.2,1.53-7.7,3.25,0,0,.62-.05,1.33.08,1.45.23,3.27,1.18.57,4.72,0,0,7.98-3.55,8,2.62"/>
              <path class="cls-3" d="m104.18,258.87c.02,1.54.22,3,.22,3,0,0,2.11,2.35,4.33-.62,0,0-.21-1.46-.72-2.93-.48-1.39-1.23-2.79-2.33-2.98-1.23-.22-1.51,1.71-1.5,3.52Z"/>
            </g>
            <line class="cls-5" x1="338.14" y1="294.25" x2="46.46" y2="294.25"/>
            <path class="cls-2" d="m158.47,294.28s-.02-5.31,5.57-4.19c0,0,2.24-4.47,6.71-3.36,0,0,2.24-5.59,6.71-2.24,0,0,1.12,1.12,1.12,2.24,0,0,4.47-2.24,7.83,1.12,0,0,4.29-3.59,8.86,1,0,0,4.38,1.79,3.91,5.43"/>
            <path class="cls-5" d="m193.43,222.31c-.59.08-1.15.32-1.6.71l-6.27,5.33c-.18.15-.37.28-.58.39l-4.89,2.53-1.51-30.24-1.59-17.47c-.06-.66.04-1.32.3-1.93l4.08-9.54-6.26,9.39c-.27.4-.77.57-1.22.4l-14.89-5.32,14.17,7.33c1.27.65,2.09,1.93,2.15,3.36l1.99,43.72c.1,2.12-.07,4.24-.48,6.32l-3.34,16.69c-.34,1.69-.51,3.41-.51,5.13v28.72l5.85,2.07-1.78-31.15c-.11-1.86-.01-3.73.28-5.58l2.49-15.8c.12-.77.2-1.54.25-2.31h0s8.39-6.39,8.39-6.39c.11-.08.21-.17.31-.27l3.72-3.72c.4-.4.9-.68,1.45-.82l14.46-3.53-14.99,1.94Z"/>
            <path class="cls-4" d="m184.17,168.18s8.95,5.59,12.3-6.71c0,0-5.59,2.24-7.83,2.24s-4.47,4.47-4.47,4.47Z"/>
            <line class="cls-5" x1="184.17" y1="168.18" x2="181.38" y2="172.1"/>
            <path class="cls-4" d="m179.46,176.59s.8-.83,3.32.42c1.28.63,3.37.36,5.1-.05,1.34-.32,2.61-.88,3.85-1.5.56-.28,1.4-.56,2.52-.56,0,0-4.98-5.59-10.88-2.8,0,0-3.03,1.71-3.9,4.49Z"/>
            <path class="cls-4" d="m182.78,170.14s-.84-6.43-9.79-6.43c0,0,2.83,4.9,3.3,5.74,1.17,2.09,2.85,2.65,6.48.69Z"/>
            <path class="cls-4" d="m159.01,176.57s-3.91-6.15-12.86-1.68c0,0,3.36,2.24,5.59,3.36,1.41.71,4.47,1.12,7.27-1.68Z"/>
            <path class="cls-4" d="m166.69,180.54s-9.36-3.42-11.6,8.89c0,0,3.36-2.24,7.83-3.36s3.77-5.53,3.77-5.53Z"/>
            <path class="cls-4" d="m204.99,220.81s6.02-2.3,4.9-12.37c0,0-2.53,4.54-4.06,6.18s-.85,6.18-.85,6.18Z"/>
            <path class="cls-4" d="m195.97,223.4s8.33-.42,10.57,8.52c0,0-1.62-1.26-5.28-1.75s-6.91-4.12-5.28-6.78Z"/>
            <g>
              <path class="cls-4" d="m233.73,289.61c-.34-1.2,4.89-18.23,5.07-37.12,0,0-1.73,8.67-4.29,14.67-3.36,7.83-.78,22.45-.78,22.45Z"/>
              <path class="cls-2" d="m224.08,294.16s.36-4.64,5.95-3.52c0,0,2.24-3.36,5.59-2.24,0,0,0-3.36,3.36-3.36s3.36,2.24,3.36,2.24c0,0,4.47-2.24,6.71,1.12,0,0,8.95-2.24,10.07,5.59l-35.03.16Z"/>
              <path class="cls-4" d="m241.77,287.85s0-17.89,8.95-25.72c0,0-1.12,6.71-8.95,25.72Z"/>
              <path class="cls-4" d="m241.83,286.08s1.61-9.98-6.21-14.45c0,0,1.24,5.41,6.21,14.45Z"/>
              <path class="cls-4" d="m233.73,289.61s.78-15.74-13.76-22.45c0,0,14.11,18.06,13.76,22.45Z"/>
            </g>
            <path class="cls-2" d="m196.48,294s1.12-5.59,6.71-3.36c0,0,2.24-1.12,3.36,0,0,0-1.12-3.36,2.24-4.47s5.59,2.24,4.47,4.47c0,0,4.47,0,5.59,3.36h-22.37Z"/>
            <g>
              <path class="cls-2" d="m117.77,294s.04-6.54,7.22-4.19c0,0-.65-3.24,3.82-3.24s4.55,3.72,4.55,3.72c0,0,2.16-1.48,4.4.76,0,0,2.89-.79,3.68,2.96h-23.67Z"/>
              <path class="cls-4" d="m130.55,289.44s-9.56-14.06-7.32-21.89c0,0,9.06,11.35,7.32,21.89Z"/>
            </g>
            <path class="cls-5" d="m101.5,294s-1.3-5.5,5.74-10.58"/>
            <path class="cls-5" d="m99.27,294s-.78-3.3,2.14-7.15"/>
            <path class="cls-5" d="m93.06,289.44s3.52,1.2,3.14,4.84"/>
            <path class="cls-5" d="m291.54,281.14s-6.64,4.8-6.12,13.03"/>
            <path class="cls-5" d="m287.07,282.26s-5.81,5.03-4.02,12.02"/>
            <path class="cls-5" d="m280.36,286.73s-3.07,2.56-1.53,7.43"/>
            <g>
              <g>
                <path class="cls-3" d="m141.46,125.58s-.42,11.92-7.42,17.92"/>
                <path class="cls-3" d="m142.04,125.58s.42,11.92,7.42,17.92"/>
              </g>
              <g>
                <path class="cls-3" d="m141.46,161.5s-.42-11.92-7.42-17.92"/>
                <path class="cls-3" d="m142.04,161.5s.42-11.92,7.42-17.92"/>
              </g>
            </g>
            <g>
              <g>
                <path class="cls-3" d="m219.52,170.08s-.34,9.6-5.97,14.43"/>
                <path class="cls-3" d="m219.98,170.08s.34,9.6,5.97,14.43"/>
              </g>
              <g>
                <path class="cls-3" d="m219.52,199s-.34-9.6-5.97-14.43"/>
                <path class="cls-3" d="m219.98,199s.34-9.6,5.97-14.43"/>
              </g>
            </g>
            <g>
              <g>
                <path class="cls-3" d="m132.13,162.58s-.17,4.95-3.08,7.44"/>
                <path class="cls-3" d="m132.37,162.58s.17,4.95,3.08,7.44"/>
              </g>
              <g>
                <path class="cls-3" d="m132.13,177.5s-.17-4.95-3.08-7.44"/>
                <path class="cls-3" d="m132.37,177.5s.17-4.95,3.08-7.44"/>
              </g>
            </g>
            <g>
              <line class="cls-3" x1="117.77" y1="206.23" x2="117.77" y2="214.63"/>
              <line class="cls-3" x1="115.04" y1="209.5" x2="120.6" y2="209.5"/>
            </g>
            <g>
              <line class="cls-3" x1="208.77" y1="154.23" x2="208.77" y2="162.63"/>
              <line class="cls-3" x1="206.04" y1="157.5" x2="211.6" y2="157.5"/>
            </g>
          </g>
        </g>
      </g>
      <text class="cls-1" transform="translate(112.49 320.35)"><tspan x="0" y="0">수직 수경 농장을 이용해 식량을 자급합니다.</tspan><tspan x="-52.04" y="9.6">이를 통해 모듈 내에서 농작물을 재배함으로써 풍요로운 생활이 가능합니다.</tspan></text>
    </g>
  </g>
</svg>