<?xml version="1.0" encoding="UTF-8"?>
<svg id="_레이어_2" data-name="레이어 2" xmlns="http://www.w3.org/2000/svg" xmlns:xlink="http://www.w3.org/1999/xlink" viewBox="0 0 619 1887.5">
  <defs>
    <style>
      .cls-1 {
        fill: #00fde1;
      }

      .cls-2 {
        font-family: YDIYGO320, YDIYGO320;
        font-size: 8px;
      }

      .cls-3 {
        clip-path: url(#clippath);
      }

      .cls-4, .cls-5 {
        fill: none;
      }

      .cls-6 {
        fill: #1a1c27;
      }

      .cls-5 {
        stroke: #1a1c27;
        stroke-linecap: round;
        stroke-linejoin: round;
        stroke-width: .75px;
      }
    </style>
    <clipPath id="clippath">
      <rect class="cls-4" width="619" height="1887.5"/>
    </clipPath>
  </defs>
  <g id="tech_last_middle">
    <g class="cls-3">
      <g>
        <line class="cls-5" x1="385.5" y1="1844.5" x2="564.5" y2="1844.5"/>
        <g>
          <path class="cls-5" d="m333.5,1820.5c2-1-2-121,29-113s23,137,23,137l-52-24Z"/>
          <path class="cls-5" d="m377.21,1707.12c1.05-.04,2.15.08,3.29.38,31,8,23,137,23,137"/>
          <path class="cls-5" d="m351.67,1820.05c1.36-6.85-.44-88.79,17.35-108.63"/>
          <path class="cls-5" d="m397.67,1707.12c.91,0,1.86.13,2.83.38,31,8,23,137,23,137"/>
          <path class="cls-5" d="m417.21,1707.12c1.05-.04,2.15.08,3.29.38,31,8,23,137,23,137"/>
          <path class="cls-5" d="m437.67,1707.12c.91,0,1.86.13,2.83.38,31,8,23,137,23,137"/>
          <path class="cls-5" d="m457.21,1707.12c1.05-.04,2.15.08,3.29.38,31,8,23,137,23,137"/>
          <path class="cls-5" d="m477.67,1707.12c.91,0,1.86.13,2.83.38,31,8,23,137,23,137"/>
          <path class="cls-5" d="m497.21,1707.12c1.05-.04,2.15.08,3.29.38,31,8,23,137,23,137"/>
          <path class="cls-5" d="m517.67,1707.12c.91,0,1.86.13,2.83.38,31,8,23,137,23,137"/>
          <path class="cls-5" d="m371.73,1819.73c.97-6.68.31-55.02,7.79-86.16"/>
          <path class="cls-5" d="m535,1707.12c.81.03,4.14.65,5,.88,31,8,24.5,136.5,24.5,136.5"/>
          <line class="cls-5" x1="359.5" y1="1707.12" x2="535" y2="1707.12"/>
          <polyline class="cls-5" points="619 1816.47 565.07 1816.66 333.73 1820.34 0 1826.15"/>
          <line class="cls-5" x1="334.74" y1="1795.32" x2="564.55" y2="1791.67"/>
          <line class="cls-5" x1="336.38" y1="1768.29" x2="562.41" y2="1764.71"/>
          <line class="cls-5" x1="339.89" y1="1741.23" x2="558.23" y2="1737.77"/>
          <line class="cls-5" x1="347.76" y1="1716.11" x2="547.32" y2="1712.94"/>
        </g>
      </g>
      <text class="cls-2" transform="translate(432.63 229.85)"><tspan class="cls-6" x="0" y="0">바다에 철근 구조물인 </tspan><tspan class="cls-1" x="74.64" y="0">‘바이오락’</tspan><tspan class="cls-6" x="120.08" y="0">을 침투시켜</tspan></text>
      <text class="cls-2" transform="translate(102.07 811.85)"><tspan class="cls-6" x="0" y="0">전류를 흘려보낸 후 </tspan><tspan class="cls-1" x="67.28" y="0">바닷물에 녹아있는 미네랄을 굳힘</tspan><tspan class="cls-6" x="178.72" y="0">으로써</tspan></text>
      <text class="cls-2" transform="translate(3.05 1776.85)"><tspan class="cls-6" x="0" y="0">해안 생태계를 빠르게 재생할 수 있는 </tspan><tspan class="cls-1" x="127.2" y="0">‘인공 산호초’</tspan><tspan class="cls-6" x="182.8" y="0">를 만드는 역할을 합니다.</tspan></text>
    </g>
  </g>
</svg>